<?xml version="1.0" standalone="yes"?>
<svg xmlns="http://www.w3.org/2000/svg" width="12494" height="7275">
<path style="fill:#ffffff; stroke:none;" d="M0 0L0 126L1026 126L1026 636L509 636L509 5759L1026 5759L1026 6269L0 6269L0 7275L3183 7275L3183 7274C3108.74 7274 3043.54 7227.31 3014.87 7160C2988.56 7098.21 2993 7029.57 2993 6964L2993 6890C2993 6786.73 2982.52 6657.98 3081 6592.33C3095.19 6582.87 3110.69 6575.58 3127 6570.59C3146.81 6564.52 3168.21 6560.1 3189 6560C3218.21 6559.86 3246.79 6561.32 3275 6569.72C3291.87 6574.75 3308.32 6582.28 3323 6592C3424.87 6659.5 3411 6793.98 3411 6900L3411 6983C3411 7076.23 3411.02 7188.25 3321 7244.19C3307.24 7252.73 3292.57 7259.85 3277 7264.42C3258.88 7269.75 3239.98 7274 3221 7274L3221 7275L4241 7275L4241 7274C4149.66 7274 4080.56 7207.63 4062.21 7121C4048.33 7055.45 4055 6984.67 4055 6918L4055 6569L4167 6569L4167 7019C4167 7070.41 4164.49 7149.15 4226 7167.56C4257.44 7176.97 4300.17 7174.09 4323.83 7148.96C4341.87 7129.8 4349.14 7100.63 4350.91 7075C4354.99 7015.77 4352 6955.4 4352 6896L4352 6569L4464 6569L4464 6920C4464 6986.71 4470.75 7057.43 4456.79 7123C4438.59 7208.47 4368.8 7274 4279 7274L4279 7275L4769 7275L4769 7274C4749.24 7274 4728.69 7269.62 4710 7263.33C4694.12 7257.99 4678.8 7250.5 4665 7240.97C4564 7171.27 4579 7032.91 4579 6926L4579 6839C4579 6762.92 4580.82 6676.79 4637.04 6618C4716.61 6534.78 4881.12 6538.31 4951.52 6632C4994.31 6688.93 4998 6761.68 4998 6830L4885 6830C4885 6783.73 4888.79 6729.66 4858.33 6691C4825.35 6649.14 4743.84 6653.56 4714.52 6697C4690.19 6733.05 4692 6779.5 4692 6821L4692 7012C4692 7050.53 4689.62 7093.99 4708.87 7129C4738.5 7182.93 4827.68 7188.73 4862.97 7137C4890.26 7096.99 4885 7041.88 4885 6996L4998 6996C4998 7086.92 4991.45 7190.83 4906 7244.95C4892.48 7253.51 4877.39 7260.45 4862 7264.86C4844.12 7269.98 4825.67 7274 4807 7274L4807 7275L5937 7275L5937 7274C5863.66 7274 5798.87 7228.15 5769.86 7162C5742.87 7100.44 5747 7031.58 5747 6966L5747 6891C5747 6787.82 5736.73 6662.39 5832 6594.43C5846.34 6584.19 5862.35 6576.88 5879 6571.33C5899.22 6564.59 5921.62 6560.1 5943 6560C5972.21 6559.86 6000.81 6561.23 6029 6569.72C6045.89 6574.81 6062.28 6582.25 6077 6592C6179.13 6659.67 6166 6796.47 6166 6903L6166 6984C6166 7077.5 6163.62 7186.35 6076 7243.66C6062.26 7252.64 6046.77 7259.94 6031 7264.58C6012.89 7269.9 5993.94 7274 5975 7274L5975 7275L7227 7275L7227 7274C7206.12 7274 7183.54 7269.59 7164 7262.19C7146.84 7255.69 7130.72 7247.58 7116 7236.52C7023.78 7167.21 7037 7039.64 7037 6938L7037 6841C7037 6761.35 7038.13 6676.51 7097.04 6615C7175.18 6533.41 7339.8 6540.79 7408.1 6631C7451.61 6688.47 7455 6760.93 7455 6830L7343 6830C7343 6784.99 7345.88 6729.51 7316.33 6692C7283.03 6649.73 7201.9 6652.71 7171.75 6697C7148.07 6731.78 7149 6777.75 7149 6818L7149 7010C7149 7050.55 7147 7095.5 7167.87 7132C7196.97 7182.89 7284.95 7187.45 7318.96 7139C7347.13 7098.86 7343 7042.53 7343 6996L7455 6996C7455 7085.21 7449.69 7184.89 7369 7241.28C7354.7 7251.27 7338.51 7258.55 7322 7264C7303.94 7269.96 7284.04 7274 7265 7274L7265 7275L8153 7275L8153 7274C8062.52 7274 7993.48 7207.8 7975.21 7122C7961.25 7056.45 7968 6985.69 7968 6919L7968 6569L8080 6569L8080 7018C8080 7068.87 8076.37 7147.68 8137 7166.97C8171.97 7178.1 8217.58 7173.38 8241.48 7143C8256.77 7123.57 8262.26 7096.14 8263.91 7072C8267.96 7012.77 8265 6952.4 8265 6893L8265 6569L8377 6569L8377 6920C8377 6985.15 8384 7054.96 8370.34 7119C8364.48 7146.47 8355.09 7173.57 8339.25 7197C8307.06 7244.63 8249.53 7274 8192 7274L8192 7275L12494 7275L12494 6778L12494 6638L12494 6598C12494 6593.28 12495.4 6585.73 12493.4 6581.39C12491.2 6576.79 12482.2 6573.57 12478 6571.15C12464 6563.14 12450 6555.05 12436 6547C12382.3 6516.13 12328.8 6484.86 12275 6454.15C12073.5 6339.14 11873.3 6221.96 11672 6106.58C11082.5 5768.65 10493.6 5429.48 9906 5088.42C9735.96 4989.74 9565.51 4891.72 9395 4793.85C9344.62 4764.93 9294.45 4735.65 9244 4706.85C9228.62 4698.07 9213.38 4689.05 9198 4680.28C9191.6 4676.63 9181.4 4673.04 9176.6 4667.39C9172.72 4662.81 9175 4650.71 9175 4645L9175 4585L9175 4349L9175 3426L9175 2327L9175 2028L9175 1946C9175 1937.72 9171.88 1921.45 9176.03 1914.19C9179.23 1908.59 9189.54 1904.82 9195 1901.72C9210.71 1892.78 9226.3 1883.66 9242 1874.72C9299.49 1841.96 9356.77 1808.79 9414 1775.58C9629.31 1650.62 9845.69 1527.53 10061 1402.58C10598.4 1090.67 11138.6 783.471 11676 471.576C11854.4 368.058 12033.6 266.094 12212 162.576C12274.9 126.072 12337.9 89.7476 12401 53.5786C12431.1 36.3257 12461.2 14.7222 12493 1L12465 0L12404 0L12191 0L11450 0L8882 0L0 0z"/>
<path style="fill:#ebb701; stroke:none;" d="M12493 0C12334.3 93.6064 12173.8 184.422 12014 276.149C11974 299.13 11934.1 322.456 11894 345.281C11883.6 351.179 11873.4 357.237 11863 363.15C11859.6 365.065 11853.5 367.16 11852.3 371.213C11848.1 385.341 11852 406.23 11852 421L11852 532L11852 894L11852 2076L11852 4941L11852 5820L11852 6088L11852 6171C11852 6182.35 11849.2 6197.92 11852.3 6208.81C11853.5 6212.85 11858.7 6214.66 11862 6216.6C11871.6 6222.3 11881.4 6227.7 11891 6233.4C11929.4 6256.14 11968.2 6278.22 12007 6300.28C12117.3 6363.05 12227.2 6426.71 12337 6490.42C12371.9 6510.71 12407 6530.87 12442 6551C12458.2 6560.29 12476.1 6574.74 12494 6580L12494 1898L12494 550L12494 161L12494 48C12494 34.4844 12498.2 12.4077 12493 0z"/>
<path style="fill:#010101; stroke:none;" d="M0 126L0 6269L1026 6269L1026 5759L509 5759L509 636L1026 636L1026 126L0 126M1228 126L1228 6269L3273 6269L3273 5760L1738 5760L1738 126L1228 126z"/>
<path style="fill:#ebb701; stroke:none;" d="M3414 126L3414 3860L3414 5037L3414 5394C3414 5485.21 3410.73 5576.33 3430.42 5666C3491.6 5944.53 3727.22 6186.38 4006 6250.35C4086.85 6268.9 4167.55 6269 4250 6269L4488 6269C4585.18 6269 4684.33 6274.5 4781 6264.83C4890.1 6253.91 4996.95 6217.53 5090 6159.57C5144.7 6125.51 5194.49 6084.51 5240 6039C5346.48 5932.52 5418.95 5796.5 5444.75 5648C5457.08 5577.06 5457 5505.78 5457 5434L5457 5218L5457 4563L5457 126L4947 126L4947 4456L4947 5038L4947 5190C4947 5256.11 4945.86 5319.87 4927.57 5384C4903.6 5468.09 4856.3 5551.41 4794.96 5613.99C4706.23 5704.51 4582.31 5756.89 4456 5759.99C4317.03 5763.39 4172.65 5709.36 4073 5610.99C4009.38 5548.17 3962.48 5458.93 3939.88 5373C3923.84 5311.98 3923 5250.62 3923 5188L3923 5038L3923 4472L3923 126L3414 126z"/>
<path style="fill:#010101; stroke:none;" d="M5712 126L5773.63 377L5889.63 849L6240.37 2277L6398.88 2922L6444.87 3109L6459.37 3168L6466.26 3198L6458.63 3231L6442.87 3295L6393.88 3494L6235.87 4137L5899.63 5506L5769.12 6037L5712 6269L6249 6269L6291.63 6097L6368.13 5790L6596.37 4872L6692.87 4485L6723.37 4362L6739 4297L6740 4297L6753.63 4355L6779.63 4461L6857.63 4780L7101.12 5776L7189.58 6138L7212.79 6233L7218.87 6258L7222.56 6267.97L7233 6269L7260 6269L7363 6269L7758 6269L7698.37 6026L7598.37 5619L7351.63 4614L7223.12 4091L7073.63 3483L7023.58 3279L7008.79 3219L7004.18 3198L7010.13 3171L7022.13 3122L7061.35 2963L7204.12 2382L7347.63 1798L7579.37 854L7695.37 382L7736.88 213L7758 126L7363 126L7260 126L7233 126C7230 126 7225.13 125.127 7222.56 127.028C7216.85 131.255 7215.36 152.074 7213.63 159C7205.97 189.627 7198.78 220.372 7191.13 251C7160.83 372.177 7132.42 493.822 7102.13 615C7017.67 952.808 6934.42 1291.19 6854.12 1630C6828.87 1736.51 6801.36 1842.49 6776.12 1949C6768.36 1981.71 6760.28 2014.39 6752.13 2047C6747.92 2063.81 6741.41 2081.72 6740 2099L6739 2099L6725.87 2044L6699.87 1939L6619.87 1618L6373.63 628L6291.13 297L6263.63 186L6249 126L5712 126M7922 126L7922 636L8430 636L8430 5759L7922 5759L7922 6269L8948 6269L8948 126L7922 126z"/>
<path style="fill:#b99101; stroke:none;" d="M11851 370L11852 371L11851 370z"/>
<path style="fill:#010101; stroke:none;" d="M11851 6210L11851 371C11827.8 378.328 11805.1 396.692 11784 408.719C11736.5 435.765 11689.2 463.154 11642 490.576C11502.6 571.496 11362.8 651.895 11223 732.149C10760.9 997.426 10298.9 1263.11 9838 1530.58C9674.95 1625.2 9511.45 1719.07 9348 1813C9305.32 1837.53 9262.3 1861.61 9220 1886.8C9209.1 1893.29 9197.91 1899.3 9187 1905.8C9183.39 1907.95 9177.34 1910.05 9175.6 1914.19C9171.35 1924.28 9175 1943.03 9175 1954L9175 2048L9175 2376L9175 3516L9175 4362L9175 4586L9175 4645C9175 4650.72 9172.75 4662.52 9176.03 4667.39C9179.24 4672.17 9188.1 4675.19 9193 4678C9206.67 4685.85 9220.44 4693.57 9234 4701.6C9284.96 4731.8 9336.61 4760.96 9388 4790.42C9568.58 4893.94 9748.06 4999.4 9929 5102.28C10364.8 5350.04 10798.5 5601.8 11232 5853.42C11364.8 5930.48 11498.2 6006.37 11631 6083.42C11678.9 6111.23 11727.1 6138.61 11775 6166.42C11800 6180.93 11824.8 6197.78 11851 6210z"/>
<path style="fill:#cb9d01; stroke:none;" d="M11851 371L11851 6210L11852 6210L11852 2058L11852 858L11852 513L11852 414C11852 401.796 11855.7 382.217 11851 371z"/>
<path style="fill:#010101; stroke:none;" d="M3181 6560.42C3153.61 6564.02 3127.35 6567.81 3102 6579.78C3089.13 6585.86 3076.91 6593.63 3066 6602.75C2976.34 6677.76 2993 6810.9 2993 6915C2993 7018.52 2975 7155.31 3064 7230.41C3074.76 7239.49 3086.4 7247.33 3099 7253.63C3117.81 7263.04 3138.33 7268.5 3159 7271.92C3185.56 7276.31 3213.34 7276.22 3240 7272.72C3301.84 7264.59 3356.98 7230.51 3384.22 7173C3415.87 7106.18 3411 7032.91 3411 6961L3411 6881C3411 6787.57 3420.79 6673.68 3342 6605.87C3331.83 6597.12 3321.01 6589.3 3309 6583.25C3291.75 6574.56 3273.94 6568.41 3255 6564.6C3231.64 6559.9 3204.74 6557.31 3181 6560.42M4998 6996L4885 6996C4885 7041.6 4890.09 7096.25 4862.97 7136C4827.07 7188.64 4739.08 7182.98 4708.87 7128C4689.62 7092.99 4692 7049.53 4692 7011L4692 6821C4692 6779.8 4690.38 6733.77 4714.52 6698C4744.82 6653.11 4825.78 6649.2 4859.1 6693C4888.45 6731.59 4885 6784.24 4885 6830L4998 6830C4998 6760.85 4994.61 6685.98 4949.99 6629C4877.51 6536.45 4705.03 6534.09 4630.08 6625C4581.22 6684.27 4579 6763.06 4579 6836C4579 6904.33 4578.89 6972.67 4579 7041C4579.1 7102.77 4593.82 7171.53 4637.09 7218C4708.5 7294.69 4857.38 7295.37 4933 7224.91C4995.64 7166.54 4998 7075.26 4998 6996M5935 6560.42C5906.8 6564.13 5879.99 6568.29 5854 6580.78C5842.22 6586.45 5831.2 6593.87 5821 6602C5729.82 6674.74 5747 6812.08 5747 6915L5747 6981C5747 7066.46 5745.02 7168.8 5817 7229.56C5828.09 7238.93 5840.03 7246.76 5853 7253.25C5872 7262.75 5892.09 7268.46 5913 7271.92C5939.56 7276.31 5967.34 7276.22 5994 7272.72C6058.63 7264.22 6113.17 7228.1 6140.69 7168C6170.31 7103.31 6166 7030.33 6166 6961L6166 6884C6166 6778.9 6174.18 6639.23 6063 6583.25C6045.37 6574.37 6027.35 6568.26 6008 6564.4C5984.97 6559.8 5958.4 6557.35 5935 6560.42M7455 6996L7343 6996C7343 7042.25 7346.95 7098.11 7318.96 7138C7284.31 7187.36 7197.58 7182.95 7167.87 7131C7147.17 7094.79 7149 7050.25 7149 7010L7149 6821C7149 6780.13 7147.68 6733.35 7171.75 6698C7203.18 6651.82 7284.56 6649.89 7317.84 6695C7345.5 6732.48 7343 6785.81 7343 6830L7455 6830C7455 6760.31 7452.08 6685.23 7406.55 6628C7333.17 6535.77 7161.21 6534.86 7086.61 6626C7038.59 6684.67 7037 6761.11 7037 6833C7037 6907.33 7036.88 6981.67 7037 7056C7037.09 7114.04 7056.29 7180.21 7098.04 7221.96C7166.67 7290.59 7303.81 7294.61 7379 7234.55C7451.58 7176.58 7455 7081.01 7455 6996M17 6569L17 7266L129 7266L129 6978L309 6978L309 6875L129 6875L129 6672L337 6672L337 6569L17 6569M420 6569L420 7266L532 7266L532 6569L420 6569M661 6569L661 7266L990 7266L990 7163L773 7163L773 6569L661 6569M1064 6569L1064 7266L1167 7266L1167 6667L1168 6667L1177.2 6715L1196.6 6811L1258.4 7116L1280.8 7226L1286.4 7254L1289.74 7264.97L1300 7266L1325 7266L1425 7266L1434.4 7217L1454.6 7118L1517.8 6806L1536.4 6714L1545 6669L1546 6669L1546 7266L1658 7266L1658 6569L1464 6569C1453.88 6647.37 1433.17 6725.31 1418.61 6803C1407.35 6863.08 1394.87 6922.92 1383.61 6983C1376.39 7021.54 1370.38 7060.93 1361 7099L1360 7099L1351 7051L1332 6957L1278.8 6693L1254 6569L1064 6569M2000 6569L2000 7266L2113 7266L2113 7006C2183 7006 2260.87 7015.37 2322 6973.81C2365.14 6944.47 2390.03 6897.93 2397.57 6847C2400.91 6824.47 2400 6801.72 2400 6779C2400 6716.67 2390.85 6656.66 2341 6613.29C2291.66 6570.36 2227.67 6569 2166 6569L2000 6569M2492 6569L2492 7266L2604 7266L2604 6926L2605 6926C2612.43 6951.78 2631.7 6977.27 2644.22 7001C2674.72 7058.8 2707.3 7115.66 2736.75 7174C2747.98 7196.24 2760.06 7218.22 2772.14 7240C2775.8 7246.6 2779.98 7260.88 2786.39 7264.97C2793.94 7269.79 2814.09 7266 2823 7266L2920 7266L2900.42 7230L2861.86 7162L2788.86 7033L2745 6956C2790.66 6947.14 2835.04 6927.76 2864.11 6890C2892.1 6853.64 2898 6811.45 2898 6767C2898 6707.23 2887.61 6650.08 2838 6610.45C2787.3 6569.95 2724.63 6569 2663 6569L2492 6569M3531 6569L3531 7266L3692 7266C3753.67 7266 3816.29 7265.06 3867 7224.55C3904.76 7194.39 3925.21 7149.58 3934.2 7103C3943.6 7054.26 3940 7003.41 3940 6954L3940 6847C3940 6761.89 3939.2 6667.68 3866 6609.45C3816.32 6569.93 3754.27 6569 3694 6569L3531 6569M4055 6569L4055 6955C4055 7028.3 4047.13 7108.03 4080.26 7176C4142.59 7303.89 4356.82 7311.04 4430.94 7191C4471.42 7125.43 4464 7044.61 4464 6971L4464 6569L4352 6569L4352 7034C4352 7082.27 4349.22 7145.96 4296 7166.19C4287.2 7169.53 4277.38 7171.27 4268 7171.91C4257.34 7172.64 4246.48 7171.7 4236 7169.74C4177.93 7158.9 4168.22 7096.25 4167.01 7047C4163.12 6887.88 4167 6728.17 4167 6569L4055 6569M5057 6569L5057 6672L5193 6672L5193 7266L5306 7266L5306 6672L5442 6672L5442 6569L5057 6569M5515 6569L5515 7266L5628 7266L5628 6569L5515 6569M6285 6569L6285 7266L6388 7266L6388 6661L6389 6661L6398.58 6708L6418.79 6801L6486.79 7114L6511.12 7226L6517.2 7254L6520.73 7264.97L6534 7266L6569 7266L6704 7266L6704 6569L6601 6569L6601 7166L6600 7166C6598.65 7149.02 6593.08 7131.64 6589.42 7115C6582.62 7084.02 6575.81 7053.03 6569.21 7022C6548.07 6922.59 6526.38 6823.27 6504.58 6724C6493.35 6672.91 6477.97 6620.82 6471 6569L6285 6569M7575 6569L7575 7266L7904 7266L7904 7163L7687 7163L7687 6569L7575 6569M7968 6569L7968 6972C7968 7047.02 7961.07 7128.83 8003.69 7195C8062.06 7285.62 8208.56 7300.14 8295 7242.48C8320.5 7225.48 8339.48 7201.42 8352.74 7174C8385.27 7106.77 8377 7027.4 8377 6955L8377 6569L8265 6569C8265 6730.17 8268.93 6891.89 8264.99 7053C8263.83 7100.34 8251.22 7158.46 8197 7169.55C8186.26 7171.75 8174.95 7172.66 8164 7171.91C8154.3 7171.25 8144.11 7169.39 8135 7165.93C8082.59 7146.04 8080 7081.31 8080 7034L8080 6569L7968 6569M8501 6569L8501 7266L8678 7266C8732.28 7266 8787.21 7265.93 8834 7233.97C8890.68 7195.26 8910 7129.42 8910 7064C8910 7042.35 8910.28 7021.27 8905.58 7000C8894.31 6949.02 8859.4 6906.15 8811 6886C8835.21 6871.87 8856.86 6856.68 8871.55 6832C8916.18 6756.97 8892.36 6637.79 8814 6595.31C8765.31 6568.92 8712.81 6569 8659 6569L8501 6569z"/>
<path style="fill:#ffffff; stroke:none;" d="M3189 6663.42C3141.2 6669.78 3117.17 6703.39 3109.25 6749C3104.27 6777.68 3105 6806.99 3105 6836L3105 6947C3105 6998.57 3099.12 7054.88 3113.43 7105C3128 7156.06 3170.05 7177.58 3221 7170.72C3270.11 7164.1 3291.01 7120.68 3296.71 7076C3304.46 7015.32 3299 6951.15 3299 6890C3299 6840.6 3304.45 6787.45 3293.35 6739C3288.97 6719.9 3281.71 6700.43 3267.83 6686.09C3248.33 6665.95 3216 6659.84 3189 6663.42M5943 6663.42C5894.61 6669.86 5871.22 6704.11 5863.25 6750C5858.23 6778.93 5859 6808.72 5859 6838L5859 6950C5859 7002.29 5853.3 7059.44 5869.03 7110C5884.13 7158.54 5927.03 7177.18 5975 7170.72C6023.68 7164.16 6045.03 7121.52 6050.71 7077C6058.46 7016.32 6053 6952.15 6053 6891C6053 6840.14 6058.4 6785.85 6046.76 6736C6035.01 6685.65 5994.83 6656.54 5943 6663.42M2113 6672L2113 6903L2180 6903C2205.23 6903 2230.41 6902.58 2252 6887.65C2265.54 6878.29 2274.85 6864.33 2280.31 6849C2287.31 6829.34 2288 6808.62 2288 6788C2288 6751.53 2287.61 6709.96 2254 6687.03C2232.83 6672.59 2206.64 6672 2182 6672L2113 6672M2604 6672L2604 6866L2678 6866C2702.82 6866 2728.19 6865.7 2750 6852.08C2780.44 6833.08 2786 6796.95 2786 6764C2786 6733.97 2780.05 6702.18 2752 6685.45C2729.89 6672.26 2703.92 6672 2679 6672L2604 6672M3643 6672L3643 7163L3715 7163C3743.43 7163 3774.19 7162.03 3796 7140.96C3826.21 7111.77 3828 7064.23 3828 7025L3828 6795C3827.99 6761.58 3822.58 6718.49 3796.91 6694.29C3773.97 6672.65 3743.62 6672 3714 6672L3643 6672M8614 6672L8614 6847L8680 6847C8703.59 6847 8727.4 6846.82 8748 6833.56C8771.2 6818.62 8777.33 6792.67 8779.09 6767C8781.21 6735.97 8777.37 6701.95 8748 6684.45C8728.03 6672.55 8703.53 6672 8681 6672L8614 6672M8614 6950L8614 7163L8693 7163C8716.12 7163 8740.78 7162.87 8761 7149.91C8774.23 7141.43 8783.57 7128.51 8789.19 7114C8793.95 7101.73 8795.87 7089.01 8797.17 7076C8801 7037.68 8799.65 6985.86 8763 6963.07C8742.58 6950.37 8717.25 6950 8694 6950L8614 6950z"/>
</svg>
